<mxfile host="65bd71144e">
    <diagram id="pYTO1-Wxgbie7NklgH1o" name="Page-1">
        <mxGraphModel dx="896" dy="1406" grid="1" gridSize="10" guides="1" tooltips="1" connect="1" arrows="1" fold="1" page="1" pageScale="1" pageWidth="850" pageHeight="1100" math="0" shadow="0">
            <root>
                <mxCell id="0"/>
                <mxCell id="1" parent="0"/>
                <mxCell id="2" value="dim_teacher" style="swimlane;whiteSpace=wrap;html=1;" parent="1" vertex="1">
                    <mxGeometry x="80" y="-130" width="200" height="330" as="geometry"/>
                </mxCell>
                <mxCell id="3" value="&lt;div style=&quot;text-align: left;&quot;&gt;&lt;span style=&quot;background-color: initial;&quot;&gt;&lt;b&gt;&lt;u&gt;teacher_id&lt;/u&gt;&amp;nbsp;&lt;/b&gt;&lt;/span&gt;&lt;/div&gt;&lt;div style=&quot;text-align: left;&quot;&gt;&lt;br&gt;&lt;/div&gt;&lt;div style=&quot;text-align: left;&quot;&gt;&lt;span style=&quot;background-color: initial;&quot;&gt;name&lt;/span&gt;&lt;/div&gt;&lt;div style=&quot;text-align: left;&quot;&gt;&lt;br&gt;&lt;/div&gt;&lt;div style=&quot;text-align: left;&quot;&gt;&lt;span style=&quot;background-color: initial;&quot;&gt;level&lt;/span&gt;&lt;/div&gt;&lt;div style=&quot;text-align: left;&quot;&gt;&lt;br&gt;&lt;/div&gt;&lt;div style=&quot;text-align: left;&quot;&gt;&lt;span style=&quot;background-color: initial;&quot;&gt;nationality&lt;/span&gt;&lt;/div&gt;&lt;div style=&quot;text-align: left;&quot;&gt;&lt;br&gt;&lt;/div&gt;&lt;div style=&quot;text-align: left;&quot;&gt;&lt;span style=&quot;background-color: initial;&quot;&gt;degree&lt;/span&gt;&lt;/div&gt;&lt;div style=&quot;text-align: left;&quot;&gt;&lt;br&gt;&lt;/div&gt;&lt;div style=&quot;text-align: left;&quot;&gt;&lt;span style=&quot;background-color: initial;&quot;&gt;graduation_country&lt;/span&gt;&lt;/div&gt;&lt;div style=&quot;text-align: left;&quot;&gt;&lt;br&gt;&lt;/div&gt;&lt;div style=&quot;text-align: left;&quot;&gt;&lt;span style=&quot;background-color: initial;&quot;&gt;graduation_year&lt;/span&gt;&lt;/div&gt;&lt;div style=&quot;text-align: left;&quot;&gt;&lt;br&gt;&lt;/div&gt;&lt;div style=&quot;text-align: left;&quot;&gt;&lt;span style=&quot;background-color: initial;&quot;&gt;year&lt;/span&gt;&lt;/div&gt;&lt;div style=&quot;text-align: left;&quot;&gt;&lt;br&gt;&lt;/div&gt;&lt;div style=&quot;text-align: left;&quot;&gt;&lt;span style=&quot;background-color: initial;&quot;&gt;month&lt;/span&gt;&lt;/div&gt;&lt;div style=&quot;text-align: left;&quot;&gt;&lt;br&gt;&lt;/div&gt;&lt;div style=&quot;text-align: left;&quot;&gt;&lt;span style=&quot;background-color: initial;&quot;&gt;date&lt;/span&gt;&lt;/div&gt;" style="text;html=1;strokeColor=none;fillColor=none;align=center;verticalAlign=middle;whiteSpace=wrap;rounded=0;" parent="2" vertex="1">
                    <mxGeometry x="10" y="150" width="120" height="50" as="geometry"/>
                </mxCell>
                <mxCell id="4" value="" style="sketch=0;aspect=fixed;html=1;points=[];align=center;image;fontSize=12;image=img/lib/mscae/Key.svg;" parent="2" vertex="1">
                    <mxGeometry x="90" y="40" width="10" height="16.13" as="geometry"/>
                </mxCell>
                <mxCell id="5" value="dim_student" style="swimlane;whiteSpace=wrap;html=1;" parent="1" vertex="1">
                    <mxGeometry x="670" y="-130" width="200" height="270" as="geometry"/>
                </mxCell>
                <mxCell id="6" value="&lt;div style=&quot;text-align: left;&quot;&gt;&lt;span style=&quot;background-color: initial;&quot;&gt;&lt;b&gt;&lt;u&gt;student_id&lt;/u&gt;&amp;nbsp;&lt;/b&gt;&lt;/span&gt;&lt;/div&gt;&lt;div style=&quot;text-align: left;&quot;&gt;&lt;br&gt;&lt;/div&gt;&lt;div style=&quot;text-align: left;&quot;&gt;&lt;span style=&quot;background-color: initial;&quot;&gt;student_name&lt;/span&gt;&lt;/div&gt;&lt;div style=&quot;text-align: left;&quot;&gt;&lt;br&gt;&lt;/div&gt;&lt;div style=&quot;text-align: left;&quot;&gt;&lt;span style=&quot;background-color: initial;&quot;&gt;sex&lt;/span&gt;&lt;/div&gt;&lt;div style=&quot;text-align: left;&quot;&gt;&lt;br&gt;&lt;/div&gt;&lt;div style=&quot;text-align: left;&quot;&gt;academic_year&lt;/div&gt;&lt;div style=&quot;text-align: left;&quot;&gt;&lt;br&gt;&lt;/div&gt;&lt;div style=&quot;text-align: left;&quot;&gt;&lt;span style=&quot;background-color: initial;&quot;&gt;class_name&lt;/span&gt;&lt;/div&gt;&lt;div style=&quot;text-align: left;&quot;&gt;&lt;br&gt;&lt;/div&gt;&lt;div style=&quot;text-align: left;&quot;&gt;&lt;span style=&quot;background-color: initial;&quot;&gt;year&lt;/span&gt;&lt;/div&gt;&lt;div style=&quot;text-align: left;&quot;&gt;&lt;br&gt;&lt;/div&gt;&lt;div style=&quot;text-align: left;&quot;&gt;&lt;span style=&quot;background-color: initial;&quot;&gt;month&lt;/span&gt;&lt;/div&gt;&lt;div style=&quot;text-align: left;&quot;&gt;&lt;br&gt;&lt;/div&gt;&lt;div style=&quot;text-align: left;&quot;&gt;&lt;span style=&quot;background-color: initial;&quot;&gt;date&lt;/span&gt;&lt;/div&gt;" style="text;html=1;strokeColor=none;fillColor=none;align=center;verticalAlign=middle;whiteSpace=wrap;rounded=0;" parent="5" vertex="1">
                    <mxGeometry y="120" width="120" height="50" as="geometry"/>
                </mxCell>
                <mxCell id="7" value="" style="sketch=0;aspect=fixed;html=1;points=[];align=center;image;fontSize=12;image=img/lib/mscae/Key.svg;" parent="5" vertex="1">
                    <mxGeometry x="90" y="40" width="10" height="16.13" as="geometry"/>
                </mxCell>
                <mxCell id="8" value="dim_subject" style="swimlane;whiteSpace=wrap;html=1;" parent="1" vertex="1">
                    <mxGeometry x="70" y="290" width="200" height="140" as="geometry"/>
                </mxCell>
                <mxCell id="9" value="&lt;div style=&quot;text-align: left;&quot;&gt;&lt;span style=&quot;background-color: initial;&quot;&gt;&lt;b&gt;&lt;u&gt;subject_id&lt;/u&gt;&amp;nbsp;&lt;/b&gt;&lt;/span&gt;&lt;/div&gt;&lt;div style=&quot;text-align: left;&quot;&gt;&lt;br&gt;&lt;/div&gt;&lt;div style=&quot;text-align: left;&quot;&gt;name_subject&lt;/div&gt;&lt;div style=&quot;text-align: left;&quot;&gt;&lt;br&gt;&lt;/div&gt;&lt;div style=&quot;text-align: left;&quot;&gt;total_credit&lt;/div&gt;&lt;div style=&quot;text-align: left;&quot;&gt;&lt;br&gt;&lt;/div&gt;&lt;div style=&quot;text-align: left;&quot;&gt;program_semester&lt;/div&gt;" style="text;html=1;strokeColor=none;fillColor=none;align=center;verticalAlign=middle;whiteSpace=wrap;rounded=0;" parent="8" vertex="1">
                    <mxGeometry x="10" y="56.13" width="120" height="50" as="geometry"/>
                </mxCell>
                <mxCell id="10" value="" style="sketch=0;aspect=fixed;html=1;points=[];align=center;image;fontSize=12;image=img/lib/mscae/Key.svg;" parent="8" vertex="1">
                    <mxGeometry x="90" y="40" width="10" height="16.13" as="geometry"/>
                </mxCell>
                <mxCell id="12" value="dim_point" style="swimlane;whiteSpace=wrap;html=1;" parent="1" vertex="1">
                    <mxGeometry x="660" y="350" width="200" height="345" as="geometry"/>
                </mxCell>
                <mxCell id="13" value="&lt;div style=&quot;text-align: left;&quot;&gt;&lt;span style=&quot;background-color: initial;&quot;&gt;&lt;b&gt;&lt;u&gt;point_id&lt;/u&gt;&amp;nbsp;&lt;/b&gt;&lt;/span&gt;&lt;/div&gt;&lt;div style=&quot;text-align: left;&quot;&gt;&lt;br&gt;&lt;/div&gt;&lt;div style=&quot;text-align: left;&quot;&gt;&lt;span style=&quot;color: rgb(77, 81, 86); font-family: arial, sans-serif; font-size: 14px; background-color: rgb(255, 255, 255);&quot;&gt;score_tk1&lt;/span&gt;&lt;br style=&quot;border-color: var(--border-color); color: rgb(77, 81, 86); font-family: arial, sans-serif; font-size: 14px;&quot;&gt;&lt;br style=&quot;border-color: var(--border-color); color: rgb(77, 81, 86); font-family: arial, sans-serif; font-size: 14px;&quot;&gt;&lt;span style=&quot;color: rgb(77, 81, 86); font-family: arial, sans-serif; font-size: 14px; background-color: rgb(255, 255, 255);&quot;&gt;score_tk2&lt;/span&gt;&lt;br style=&quot;border-color: var(--border-color); color: rgb(77, 81, 86); font-family: arial, sans-serif; font-size: 14px;&quot;&gt;&lt;br style=&quot;border-color: var(--border-color); color: rgb(77, 81, 86); font-family: arial, sans-serif; font-size: 14px;&quot;&gt;&lt;span style=&quot;color: rgb(77, 81, 86); font-family: arial, sans-serif; font-size: 14px; background-color: rgb(255, 255, 255);&quot;&gt;score_tk3&lt;/span&gt;&lt;br style=&quot;border-color: var(--border-color); color: rgb(77, 81, 86); font-family: arial, sans-serif; font-size: 14px;&quot;&gt;&lt;br style=&quot;border-color: var(--border-color); color: rgb(77, 81, 86); font-family: arial, sans-serif; font-size: 14px;&quot;&gt;&lt;span style=&quot;color: rgb(77, 81, 86); font-family: arial, sans-serif; font-size: 14px; background-color: rgb(255, 255, 255);&quot;&gt;score_th1&lt;/span&gt;&lt;br style=&quot;border-color: var(--border-color); color: rgb(77, 81, 86); font-family: arial, sans-serif; font-size: 14px;&quot;&gt;&lt;br style=&quot;border-color: var(--border-color); color: rgb(77, 81, 86); font-family: arial, sans-serif; font-size: 14px;&quot;&gt;&lt;span style=&quot;color: rgb(77, 81, 86); font-family: arial, sans-serif; font-size: 14px; background-color: rgb(255, 255, 255);&quot;&gt;score_th2&lt;/span&gt;&lt;br style=&quot;border-color: var(--border-color); color: rgb(77, 81, 86); font-family: arial, sans-serif; font-size: 14px;&quot;&gt;&lt;br style=&quot;border-color: var(--border-color); color: rgb(77, 81, 86); font-family: arial, sans-serif; font-size: 14px;&quot;&gt;&lt;span style=&quot;color: rgb(77, 81, 86); font-family: arial, sans-serif; font-size: 14px; background-color: rgb(255, 255, 255);&quot;&gt;score_th3&lt;/span&gt;&lt;br style=&quot;border-color: var(--border-color); color: rgb(77, 81, 86); font-family: arial, sans-serif; font-size: 14px;&quot;&gt;&lt;br style=&quot;border-color: var(--border-color); color: rgb(77, 81, 86); font-family: arial, sans-serif; font-size: 14px;&quot;&gt;&lt;span style=&quot;color: rgb(77, 81, 86); font-family: arial, sans-serif; font-size: 14px; background-color: rgb(255, 255, 255);&quot;&gt;score_gk&lt;/span&gt;&lt;br style=&quot;border-color: var(--border-color); color: rgb(77, 81, 86); font-family: arial, sans-serif; font-size: 14px;&quot;&gt;&lt;br style=&quot;border-color: var(--border-color); color: rgb(77, 81, 86); font-family: arial, sans-serif; font-size: 14px;&quot;&gt;&lt;span style=&quot;color: rgb(77, 81, 86); font-family: arial, sans-serif; font-size: 14px; background-color: rgb(255, 255, 255);&quot;&gt;score_ck&lt;/span&gt;&lt;br&gt;&lt;/div&gt;" style="text;html=1;strokeColor=none;fillColor=none;align=center;verticalAlign=middle;whiteSpace=wrap;rounded=0;" parent="12" vertex="1">
                    <mxGeometry y="165" width="120" height="50" as="geometry"/>
                </mxCell>
                <mxCell id="14" value="" style="sketch=0;aspect=fixed;html=1;points=[];align=center;image;fontSize=12;image=img/lib/mscae/Key.svg;" parent="12" vertex="1">
                    <mxGeometry x="90" y="40" width="10" height="16.13" as="geometry"/>
                </mxCell>
                <mxCell id="15" value="fact_report_qlsv_gv" style="swimlane;whiteSpace=wrap;html=1;" parent="1" vertex="1">
                    <mxGeometry x="370" y="110" width="210" height="290" as="geometry"/>
                </mxCell>
                <mxCell id="16" value="&lt;div style=&quot;text-align: left;&quot;&gt;&lt;span style=&quot;background-color: initial;&quot;&gt;&lt;b&gt;&lt;u&gt;id_report&lt;/u&gt;&amp;nbsp;&lt;/b&gt;&lt;/span&gt;&lt;/div&gt;&lt;div style=&quot;text-align: left;&quot;&gt;&lt;br&gt;&lt;/div&gt;&lt;div style=&quot;text-align: left;&quot;&gt;&lt;b style=&quot;border-color: var(--border-color);&quot;&gt;&lt;u style=&quot;border-color: var(--border-color);&quot;&gt;teacher_id&lt;/u&gt;&lt;/b&gt;&lt;br&gt;&lt;/div&gt;&lt;div style=&quot;text-align: left;&quot;&gt;&lt;br&gt;&lt;/div&gt;&lt;div style=&quot;text-align: left;&quot;&gt;&lt;b style=&quot;border-color: var(--border-color);&quot;&gt;&lt;u style=&quot;border-color: var(--border-color);&quot;&gt;subject_id&lt;/u&gt;&lt;/b&gt;&lt;br&gt;&lt;/div&gt;&lt;div style=&quot;text-align: left;&quot;&gt;&lt;br&gt;&lt;/div&gt;&lt;div style=&quot;text-align: left;&quot;&gt;&lt;b style=&quot;border-color: var(--border-color);&quot;&gt;&lt;u style=&quot;border-color: var(--border-color);&quot;&gt;student_id&lt;/u&gt;&amp;nbsp;&lt;/b&gt;&lt;br&gt;&lt;/div&gt;&lt;div style=&quot;text-align: left;&quot;&gt;&lt;br&gt;&lt;/div&gt;&lt;div style=&quot;text-align: left;&quot;&gt;&lt;b style=&quot;border-color: var(--border-color);&quot;&gt;&lt;u style=&quot;border-color: var(--border-color);&quot;&gt;point_id&lt;/u&gt;&lt;/b&gt;&lt;/div&gt;&lt;div style=&quot;text-align: left;&quot;&gt;&lt;br&gt;&lt;/div&gt;&lt;div style=&quot;text-align: left;&quot;&gt;&lt;b&gt;&lt;u&gt;type_id&lt;/u&gt;&lt;/b&gt;&lt;/div&gt;&lt;div style=&quot;text-align: left;&quot;&gt;&lt;br&gt;&lt;/div&gt;&lt;div style=&quot;text-align: left;&quot;&gt;tb_tk&lt;/div&gt;&lt;div style=&quot;text-align: left;&quot;&gt;&lt;br&gt;&lt;/div&gt;&lt;div style=&quot;text-align: left;&quot;&gt;tb_th&lt;/div&gt;&lt;div style=&quot;text-align: left;&quot;&gt;&lt;br&gt;&lt;/div&gt;&lt;div style=&quot;text-align: left;&quot;&gt;total_subject_teach&lt;/div&gt;&lt;div style=&quot;text-align: left;&quot;&gt;&lt;br&gt;&lt;/div&gt;&lt;div style=&quot;text-align: left;&quot;&gt;&lt;br&gt;&lt;/div&gt;&lt;div style=&quot;text-align: left;&quot;&gt;&lt;br&gt;&lt;/div&gt;" style="text;html=1;strokeColor=none;fillColor=none;align=center;verticalAlign=middle;whiteSpace=wrap;rounded=0;" parent="15" vertex="1">
                    <mxGeometry x="10" y="150.09" width="120" height="50" as="geometry"/>
                </mxCell>
                <mxCell id="19" value="" style="sketch=0;aspect=fixed;html=1;points=[];align=center;image;fontSize=12;image=img/lib/mscae/Key.svg;" parent="15" vertex="1">
                    <mxGeometry x="80" y="30" width="10" height="16.13" as="geometry"/>
                </mxCell>
                <mxCell id="20" value="" style="points=[[0,0.5,0],[0.24,0,0],[0.5,0.28,0],[0.995,0.475,0],[0.5,0.72,0],[0.24,1,0]];verticalLabelPosition=bottom;sketch=0;html=1;verticalAlign=top;aspect=fixed;align=center;pointerEvents=1;shape=mxgraph.cisco19.key;fillColor=#005073;strokeColor=none;strokeWidth=1;perimeterSpacing=0;fontSize=12;" parent="15" vertex="1">
                    <mxGeometry x="88" y="60.00000000000006" width="22" height="9.91" as="geometry"/>
                </mxCell>
                <mxCell id="21" value="" style="points=[[0,0.5,0],[0.24,0,0],[0.5,0.28,0],[0.995,0.475,0],[0.5,0.72,0],[0.24,1,0]];verticalLabelPosition=bottom;sketch=0;html=1;verticalAlign=top;aspect=fixed;align=center;pointerEvents=1;shape=mxgraph.cisco19.key;fillColor=#005073;strokeColor=none;strokeWidth=1;perimeterSpacing=0;fontSize=12;" parent="15" vertex="1">
                    <mxGeometry x="88" y="90.00000000000006" width="22" height="9.91" as="geometry"/>
                </mxCell>
                <mxCell id="22" value="" style="points=[[0,0.5,0],[0.24,0,0],[0.5,0.28,0],[0.995,0.475,0],[0.5,0.72,0],[0.24,1,0]];verticalLabelPosition=bottom;sketch=0;html=1;verticalAlign=top;aspect=fixed;align=center;pointerEvents=1;shape=mxgraph.cisco19.key;fillColor=#005073;strokeColor=none;strokeWidth=1;perimeterSpacing=0;fontSize=12;" parent="15" vertex="1">
                    <mxGeometry x="88" y="120.00000000000006" width="22" height="9.91" as="geometry"/>
                </mxCell>
                <mxCell id="23" value="" style="points=[[0,0.5,0],[0.24,0,0],[0.5,0.28,0],[0.995,0.475,0],[0.5,0.72,0],[0.24,1,0]];verticalLabelPosition=bottom;sketch=0;html=1;verticalAlign=top;aspect=fixed;align=center;pointerEvents=1;shape=mxgraph.cisco19.key;fillColor=#005073;strokeColor=none;strokeWidth=1;perimeterSpacing=0;fontSize=12;" parent="15" vertex="1">
                    <mxGeometry x="80" y="150.09000000000006" width="22" height="9.91" as="geometry"/>
                </mxCell>
                <mxCell id="31" value="" style="points=[[0,0.5,0],[0.24,0,0],[0.5,0.28,0],[0.995,0.475,0],[0.5,0.72,0],[0.24,1,0]];verticalLabelPosition=bottom;sketch=0;html=1;verticalAlign=top;aspect=fixed;align=center;pointerEvents=1;shape=mxgraph.cisco19.key;fillColor=#005073;strokeColor=none;strokeWidth=1;perimeterSpacing=0;fontSize=12;" parent="15" vertex="1">
                    <mxGeometry x="80" y="180.04000000000008" width="22" height="9.91" as="geometry"/>
                </mxCell>
                <mxCell id="24" value="final_grade: điểm tổng kết&lt;br&gt;&lt;br&gt;rank_academic: xếp loại học lực&lt;br&gt;&lt;br&gt;type: Lý thuyết hay là thực hành&lt;br&gt;&lt;br&gt;&lt;span style=&quot;text-align: left;&quot;&gt;total_subject_teach: số môn dạy&lt;/span&gt;&lt;br&gt;&lt;br&gt;&lt;span style=&quot;text-align: left;&quot;&gt;total_stu_teach_subject: số sinh viên theo học môn học của giảng viên đó&lt;/span&gt;" style="text;html=1;align=center;verticalAlign=middle;resizable=0;points=[];autosize=1;strokeColor=none;fillColor=none;" parent="1" vertex="1">
                    <mxGeometry x="115" y="755" width="420" height="140" as="geometry"/>
                </mxCell>
                <mxCell id="28" value="dim_course_type" style="swimlane;whiteSpace=wrap;html=1;startSize=23;" parent="1" vertex="1">
                    <mxGeometry x="110" y="490" width="200" height="140" as="geometry"/>
                </mxCell>
                <mxCell id="29" value="&lt;div style=&quot;text-align: left;&quot;&gt;&lt;span style=&quot;background-color: initial;&quot;&gt;&lt;b&gt;&lt;u&gt;type_id&lt;/u&gt;&amp;nbsp;&lt;/b&gt;&lt;/span&gt;&lt;/div&gt;&lt;div style=&quot;text-align: left;&quot;&gt;&lt;br&gt;&lt;/div&gt;&lt;div style=&quot;text-align: left;&quot;&gt;type&lt;/div&gt;&lt;div style=&quot;text-align: left;&quot;&gt;&lt;br&gt;&lt;/div&gt;&lt;div style=&quot;text-align: left;&quot;&gt;&lt;br&gt;&lt;/div&gt;" style="text;html=1;strokeColor=none;fillColor=none;align=center;verticalAlign=middle;whiteSpace=wrap;rounded=0;" parent="28" vertex="1">
                    <mxGeometry x="-20" y="56.13" width="120" height="50" as="geometry"/>
                </mxCell>
                <mxCell id="30" value="" style="sketch=0;aspect=fixed;html=1;points=[];align=center;image;fontSize=12;image=img/lib/mscae/Key.svg;" parent="28" vertex="1">
                    <mxGeometry x="70" y="40" width="10" height="16.13" as="geometry"/>
                </mxCell>
                <mxCell id="32" value="" style="edgeStyle=entityRelationEdgeStyle;fontSize=12;html=1;endArrow=ERoneToMany;exitX=1;exitY=0.25;exitDx=0;exitDy=0;entryX=0;entryY=0.25;entryDx=0;entryDy=0;" parent="1" source="2" target="15" edge="1">
                    <mxGeometry width="100" height="100" relative="1" as="geometry">
                        <mxPoint x="320" y="30" as="sourcePoint"/>
                        <mxPoint x="520" y="180" as="targetPoint"/>
                    </mxGeometry>
                </mxCell>
                <mxCell id="33" value="" style="edgeStyle=entityRelationEdgeStyle;fontSize=12;html=1;endArrow=ERoneToMany;exitX=1;exitY=0.25;exitDx=0;exitDy=0;entryX=0;entryY=0.5;entryDx=0;entryDy=0;" parent="1" source="8" target="15" edge="1">
                    <mxGeometry width="100" height="100" relative="1" as="geometry">
                        <mxPoint x="290" y="-37.5" as="sourcePoint"/>
                        <mxPoint x="380" y="192.5" as="targetPoint"/>
                    </mxGeometry>
                </mxCell>
                <mxCell id="34" value="" style="edgeStyle=entityRelationEdgeStyle;fontSize=12;html=1;endArrow=ERoneToMany;exitX=1;exitY=0.25;exitDx=0;exitDy=0;entryX=0;entryY=0.75;entryDx=0;entryDy=0;" parent="1" source="28" target="15" edge="1">
                    <mxGeometry width="100" height="100" relative="1" as="geometry">
                        <mxPoint x="510" y="550" as="sourcePoint"/>
                        <mxPoint x="610" y="480" as="targetPoint"/>
                    </mxGeometry>
                </mxCell>
                <mxCell id="35" value="" style="edgeStyle=entityRelationEdgeStyle;fontSize=12;html=1;endArrow=ERoneToMany;exitX=0;exitY=0.25;exitDx=0;exitDy=0;entryX=1;entryY=0.5;entryDx=0;entryDy=0;" parent="1" source="12" target="15" edge="1">
                    <mxGeometry width="100" height="100" relative="1" as="geometry">
                        <mxPoint x="450" y="647.5" as="sourcePoint"/>
                        <mxPoint x="510" y="450" as="targetPoint"/>
                    </mxGeometry>
                </mxCell>
                <mxCell id="36" value="" style="edgeStyle=entityRelationEdgeStyle;fontSize=12;html=1;endArrow=ERoneToMany;exitX=0;exitY=0.25;exitDx=0;exitDy=0;entryX=1;entryY=0.25;entryDx=0;entryDy=0;" parent="1" source="5" target="15" edge="1">
                    <mxGeometry width="100" height="100" relative="1" as="geometry">
                        <mxPoint x="670" y="446.25" as="sourcePoint"/>
                        <mxPoint x="590" y="265" as="targetPoint"/>
                    </mxGeometry>
                </mxCell>
            </root>
        </mxGraphModel>
    </diagram>
</mxfile>